<?xml version="1.0" encoding="utf-8"?>
<!-- Generator: Adobe Illustrator 27.0.0, SVG Export Plug-In . SVG Version: 6.00 Build 0)  -->
<svg version="1.1" id="Layer_1" xmlns="http://www.w3.org/2000/svg" xmlns:xlink="http://www.w3.org/1999/xlink" x="0px" y="0px"
	 viewBox="0 0 676.7 358.6" style="enable-background:new 0 0 676.7 358.6;" xml:space="preserve">
<style type="text/css">
	.st0{fill:#4EA0B0;}
</style>
<g>
	<g>
		<path class="st0" d="M153,98.3h-14.4v36.7c0,2.4,0.8,4.2,2.4,5.6l20.9,15.3v0.4H81.4v-0.4l14.9-14c1.3-1.3,2-3.1,2-5.3V19.8
			c0-2.2-0.7-4-2-5.3l-14.9-14V0h77.1c8.3,0,15.9,0.8,22.8,2.4c6.9,1.6,13.3,4.2,19.2,7.7c5.9,3.5,10.6,8.4,13.9,14.7
			c3.3,6.3,5,13.7,5,22.3c0,16.9-6,29.6-17.9,38.2C189.6,94,173.4,98.3,153,98.3z M138.5,8.7v85.1h10.2c8.9,0,15.9-4.1,21-12.2
			c5.1-8.1,7.7-19.3,7.7-33.3c0-13.3-2.3-24-7-31.9C165.8,8.4,159.3,4.4,151,4.4h-8.4c-1.8,0-2.9,0.3-3.3,0.8
			C138.8,5.7,138.5,6.9,138.5,8.7z"/>
		<path class="st0" d="M284.6,137.8c0-4.3-1.5-7.7-4.6-10.2c-3-2.5-8.6-5.6-16.8-9.3l-15.1-7.1c-14.4-6.8-21.6-17.3-21.6-31.6
			c0-10.7,4.1-19.2,12.2-25.6c8.1-6.4,19.3-9.6,33.3-9.6c13,0,26.1,2,39.1,6l-12.4,32.2h-0.4L281,51.8c-1.3-2.2-3-3.3-5.1-3.3h-3.1
			c-5.2,0-9.5,1.3-12.9,4c-3.4,2.7-5.1,6.5-5.1,11.6c0,4.6,1.6,8.3,4.8,11.1c3.2,2.8,8.4,5.9,15.7,9.1l14.2,6.2
			c8,3.4,14.1,7.4,18.3,12c4.2,4.6,6.3,10.8,6.3,18.7c0,11.7-4.5,20.8-13.6,27.2c-9,6.4-21.1,9.7-36.2,9.7
			c-14.2,0-27.9-2.3-40.9-6.9l12.2-34.5h0.4l17.8,34.5c0.9,1.9,2.4,2.9,4.7,2.9h5.1c6.4,0,11.4-1.5,15.2-4.4
			C282.7,146.6,284.6,142.7,284.6,137.8z"/>
		<g>
			<path class="st0" d="M333,13.3C333.1,13.3,333.1,13.3,333,13.3C333,13.3,333,13.3,333,13.3z"/>
			<path class="st0" d="M374.2,145.6c-1.3-1.2-2-3-2-5.3v-94L322.8,64v0.4l10.9,11.1c1.3,1.5,2,3.3,2,5.6v59.1c0,2.4-0.7,4.2-2,5.3
				l-10.9,10.2v0.4h62.2v-0.4L374.2,145.6z"/>
			<path class="st0" d="M343,38.4c3.4-3,5.1-7,5.1-11.9c0-5.2-1.7-9.4-5.1-12.6c-3.4-3.2-7.7-4.8-12.9-4.8c-4.9,0-9.1,1.6-12.6,4.8
				c-3.5,3.2-5.2,7.4-5.2,12.6c0,4.9,1.7,8.9,5.2,11.9c3.5,3,7.7,4.6,12.6,4.6C335.3,42.9,339.6,41.4,343,38.4z M332.3,11.7
				c0.6,0,1.2,0.1,1.8,0.2c1.5,0.3,3,0.8,4.4,1.4c0.4,0.2,0.5,0.7,0.3,1.1c-0.2,0.4-0.7,0.5-1.1,0.3c-1.3-0.6-2.6-1-4-1.3
				c-0.1,0-0.3,0-0.4-0.1c0,0-0.2,0-0.2,0c-0.1,0-0.3,0-0.4,0c-0.1,0-0.3,0-0.4,0C331.2,13.2,331.2,11.7,332.3,11.7z M328.7,13.2
				c0,0-0.1,0-0.1,0c0,0-0.1,0-0.1,0c0,0,0,0,0,0c0,0,0,0,0,0c-0.4,0.1-0.8,0.1-1.2,0.2c-2.5,0.6-5,1.7-6.9,3.5
				c-3.1,3-4,7.2-3.8,11.4c0.1,1-1.5,1-1.6,0c-0.2-2.8,0.1-5.7,1.3-8.3c2.1-4.8,7.3-8,12.5-8.4C329.7,11.6,329.7,13.2,328.7,13.2z"
				/>
			<path class="st0" d="M328.4,13.3C328.5,13.2,328.3,13.3,328.4,13.3L328.4,13.3z"/>
		</g>
		<path class="st0" d="M490.4,79.6l-63.1,21.7l0.1,0.4c4.4,12.9,10.6,21.6,18.4,26c7.8,4.4,16.1,5.1,24.9,2.1
			c14.8-5.1,23.3-15.2,25.3-30.3l0.4-0.1c3.6,27.8-7.4,46-33.1,54.9c-14.4,5-28.2,4.7-41.2-0.9c-13-5.5-22.5-17-28.5-34.4
			c-6.3-18.4-6.1-33.7,0.8-46.1c6.9-12.4,17.9-21.2,33.2-26.5c5.9-2,11.7-3.2,17.4-3.4c5.7-0.2,11.4,0.5,17.1,2.1
			c5.7,1.7,10.9,5,15.6,10c4.7,5,8.5,11.6,11.3,19.7C489.5,76.3,490,77.9,490.4,79.6z M428.7,50.5c-5.5,1.9-8.5,6.5-9.1,13.8
			c-0.6,7.3,1.6,18.4,6.5,33.2L457,86.9c-0.5-1.9-1.1-4-2-6.4c-4.5-13-8.8-21.7-13.1-26C437.7,50.3,433.3,48.9,428.7,50.5z"/>
	</g>
	<g>
		<path class="st0" d="M83.1,203.9l29.8,58.7c1.3,2.5,3,4.8,5.1,6.9l9.3,8.7v0.4H80.2l-24.7-52.5c-0.7-1.8-2.1-2.7-4-2.7
			c-0.9,0-1.7,0.3-2.4,0.9v38.2c0,2.2,0.7,4,2.2,5.3l10.9,10.2v0.4H0v-0.4l10.9-10.2c1.3-1.3,2-3.1,2-5.3v-124c0-2.4-0.7-4.2-2-5.6
			L0,122.7v-0.4l49.1-5.8v105.4l36-26.9c1.6-1.2,1.8-2.7,0.4-4.4L70.5,169v-0.4h54.5v0.4l-40.7,30.9
			C82.8,200.9,82.4,202.3,83.1,203.9z"/>
		<path class="st0" d="M240.7,168.5v93.1c0,2.5,0.7,4.4,2,5.6l11.1,10.9v0.4h-49.6v-23.8c-2.8,7.9-7.2,14.1-13.1,18.7
			c-5.9,4.6-12.9,6.9-20.9,6.9c-11,0-19.3-3.9-25.1-11.8c-5.8-7.9-8.7-19.3-8.7-34.5c0-8.4,0.1-24.7,0.4-48.7c0-2.2-0.7-4-2-5.3
			L124,169v-0.4h49.1l-0.2,29.3c0,19.6,0,29.9,0,31.1c0,10.8,1.1,19,3.3,24.7c2.2,5.6,6.2,8.4,12,8.4c6.1,0,11.4-3.3,16-10v-66.5
			c0-2.2-0.7-4.1-2-5.6L191.4,169v-0.4H240.7z"/>
		<path class="st0" d="M269.4,342.5V185.7c0-2.2-0.7-4.1-2-5.6L256.5,169v-0.4h49.1v23.6c7.3-16.9,18.7-25.3,34.5-25.3
			c12.4,0,22.6,4.9,30.3,14.8c7.8,9.9,11.7,23.1,11.7,39.7c0,17.6-4.4,31.9-13.3,42.8c-8.9,10.9-20.2,16.3-33.8,16.3
			c-15.3,0-25-5.6-29.3-16.9v77.8c0,1.5,0.2,2.5,0.6,3.1c0.4,0.6,1.3,1.4,2.8,2.4l16.4,11.3v0.4h-68.9v-0.4l10.9-10.2
			C268.8,346.5,269.4,344.8,269.4,342.5z M322.3,184.5c-6.5,0-12.1,3.5-16.7,10.4v66.9c3.4,3.7,8.2,5.6,14.4,5.6
			c6.4,0,11.9-3.7,16.6-11c4.7-7.3,7-18.5,7-33.5C343.7,197.4,336.6,184.5,322.3,184.5z"/>
		<path class="st0" d="M492.8,201.9l-63.1,21.7l0.1,0.4c4.4,12.9,10.6,21.6,18.4,26c7.8,4.4,16.1,5.2,24.9,2.1
			c14.8-5.1,23.3-15.2,25.3-30.3l0.4-0.1c3.6,27.8-7.4,46-33.1,54.9c-14.4,5-28.2,4.7-41.2-0.9c-13-5.5-22.5-17-28.5-34.4
			c-6.3-18.4-6.1-33.7,0.8-46.1c6.9-12.4,17.9-21.2,33.2-26.5c5.9-2,11.7-3.2,17.4-3.4c5.7-0.2,11.4,0.5,17.1,2.1
			c5.7,1.7,10.9,5,15.6,10c4.7,5,8.5,11.6,11.3,19.7C491.9,198.6,492.4,200.2,492.8,201.9z M431.1,172.8c-5.5,1.9-8.5,6.5-9.1,13.8
			c-0.6,7.3,1.6,18.4,6.5,33.2l30.9-10.6c-0.5-1.9-1.1-4-2-6.4c-4.5-13-8.8-21.7-13.1-26C440.1,172.6,435.7,171.2,431.1,172.8z"/>
		<path class="st0" d="M552.2,78.1v184.4c0,2.2,0.7,4,2.2,5.3l10.9,10.2v0.4H503v-0.4l10.9-10.2c1.3-1.3,2-3.1,2-5.3V100.1
			c0-2.4-0.7-4.2-2-5.6L503,84.4v-0.4L552.2,78.1z"/>
		<path class="st0" d="M670,201.9l-63.1,21.7l0.1,0.4c4.4,12.9,10.6,21.6,18.4,26c7.8,4.4,16.1,5.2,24.9,2.1
			c14.8-5.1,23.3-15.2,25.3-30.3l0.4-0.1c3.6,27.8-7.4,46-33.1,54.9c-14.4,5-28.2,4.7-41.2-0.9c-13-5.5-22.5-17-28.5-34.4
			c-6.3-18.4-6.1-33.7,0.8-46.1c6.9-12.4,17.9-21.2,33.2-26.5c5.9-2,11.7-3.2,17.4-3.4c5.7-0.2,11.4,0.5,17.1,2.1
			c5.7,1.7,10.9,5,15.6,10c4.7,5,8.5,11.6,11.3,19.7C669.1,198.6,669.5,200.2,670,201.9z M608.2,172.8c-5.5,1.9-8.5,6.5-9.1,13.8
			c-0.6,7.3,1.6,18.4,6.5,33.2l30.9-10.6c-0.5-1.9-1.1-4-2-6.4c-4.5-13-8.8-21.7-13.1-26C617.3,172.6,612.9,171.2,608.2,172.8z"/>
	</g>
	<g>
		<path class="st0" d="M214,148.5c7.6-10.3-0.3-31.9-0.3-31.9l-46.1,39.7h21C198.5,156.3,207.6,157.1,214,148.5z"/>
	</g>
</g>
</svg>
